<?xml version="1.0" encoding="UTF-8"?>
<!-- Generated by Pixelmator Pro 3.7.1 -->
<svg width="512" height="453" viewBox="0 0 512 453" xmlns="http://www.w3.org/2000/svg">
 <g id="Active">
 <path id="Path" fill="#ffffff" fill-rule="evenodd" stroke="none" d="M 0 0 L 0 438.388885 L 512 438.388885 L 512 62.627502 L 466.823212 0 L 0 0 Z M 58.514221 409.161285 L 29.257143 409.161285 L 29.257143 379.935577 L 58.514221 379.935577 L 58.514221 409.161285 Z"/>
 <path id="Rectangle" fill="#0057af" fill-rule="evenodd" stroke="none" d="M 380.342804 146.129028 L 131.65715 146.129028 L 131.65715 0 L 380.342804 0 L 380.342804 146.129028 Z M 336.457153 116.903229 L 277.942871 116.903229 L 277.942871 29.225861 L 336.457153 29.225861 L 336.457153 116.903229 Z"/>
 <path id="path1" fill="#000000" fill-rule="evenodd" stroke="none" d="M 87.771431 438.387085 L 87.771431 204.580643 L 408.935059 204.580643 L 424.228577 233.806458 L 424.228577 438.387085 L 87.771431 438.387085 Z"/>
 <path id="Line" fill="none" stroke="#ff8800" stroke-width="30" stroke-linecap="round" stroke-linejoin="round" d="M 270.046295 218.935532 L 334.515167 335 M 328.874084 219.935532 L 393.342865 336"/>
 <path id="path2" fill="none" stroke="#0057af" stroke-width="30" stroke-linecap="round" stroke-linejoin="round" d="M 269.99939 218.935547 L 187.000244 393.936035 M 210.99939 218.935486 L 128.000351 393.935944"/>
 </g>
</svg>
