<?xml version="1.0" encoding="UTF-8"?>
<!-- Generated by Pixelmator Pro 3.7.1 -->
<svg width="512" height="238" viewBox="0 0 512 238" xmlns="http://www.w3.org/2000/svg">
 <g id="Open">
 <path id="path2" fill="#ffffff" fill-rule="evenodd" stroke="#000000" stroke-width="14.013699" stroke-linecap="round" stroke-linejoin="round" d="M 28.054794 203 L 462.904053 203 L 462.904053 49 L 28.054794 49 Z"/>
 <path id="path3" fill="#ffffff" fill-rule="evenodd" stroke="#000000" stroke-width="14.013699" stroke-linecap="round" stroke-linejoin="round" d="M 7.013699 231 L 399.780792 231 L 399.780792 119 L 7.013699 119 Z"/>
 <path id="path4" fill="none" stroke="#000000" stroke-width="14.013699" stroke-linecap="round" stroke-linejoin="round" d="M 252.493149 175 L 245.479446 189 L 147.287674 189 L 154.301376 175 L 154.301376 175"/>
 <path id="path5" fill="#ffffff" fill-rule="evenodd" stroke="#000000" stroke-width="14.013699" stroke-linecap="round" stroke-linejoin="round" d="M 399.780823 231 L 427.835602 175 L 427.835602 77 L 399.780823 119 L 399.780823 231 Z"/>
 <linearGradient id="linearGradient1" x1="217.424658" y1="119" x2="217.424658" y2="77" gradientUnits="userSpaceOnUse">
 <stop offset="0" stop-color="#001f3e" stop-opacity="1"/>
 <stop offset="0.629462" stop-color="#0055aa" stop-opacity="1"/>
 </linearGradient>
 <path id="path6" fill="url(#linearGradient1)" fill-rule="evenodd" stroke="#000000" stroke-width="14.013699" stroke-linecap="round" stroke-linejoin="round" d="M 7.013699 119 L 63.123287 77 L 427.835602 77 L 399.780823 119 L 7.013699 119 Z"/>
 </g>
 <path id="path7" fill="#ffffff" fill-rule="evenodd" stroke="#000000" stroke-width="14.013699" stroke-linecap="round" stroke-linejoin="round" d="M 28.054794 49 L 105.205482 7 L 504.986298 7 L 462.904114 49 L 28.054794 49 Z"/>
 <linearGradient id="linearGradient2" x1="462.90411" y1="105" x2="504.986301" y2="105" gradientUnits="userSpaceOnUse">
 <stop offset="0" stop-color="#ffffff" stop-opacity="1"/>
 <stop offset="1" stop-color="#808080" stop-opacity="1"/>
 </linearGradient>
 <path id="path8" fill="url(#linearGradient2)" fill-rule="evenodd" stroke="#000000" stroke-width="14.013699" stroke-linecap="round" stroke-linejoin="round" d="M 462.904114 203 L 504.986298 119 L 504.986298 7 L 462.904114 49 L 462.904114 203 Z"/>
</svg>
