<?xml version="1.0" encoding="UTF-8"?>
<!-- Generated by Pixelmator Pro 3.7.1 -->
<svg width="512" height="238" viewBox="0 0 512 238" xmlns="http://www.w3.org/2000/svg">
    <g id="left-eye">
        <filter id="filter1" x="0" y="0" width="512" height="238" filterUnits="userSpaceOnUse" primitiveUnits="userSpaceOnUse" color-interpolation-filters="sRGB">
            <feGaussianBlur stdDeviation="0"/>
            <feOffset dx="2.5" dy="4.330127" result="offsetblur"/>
            <feFlood flood-color="#000000" flood-opacity="1"/>
            <feComposite in2="offsetblur" operator="in"/>
            <feMerge>
                <feMergeNode/>
                <feMergeNode in="SourceGraphic"/>
            </feMerge>
        </filter>
        <path id="Circle" fill="#ffffff" fill-rule="evenodd" stroke="#000000" stroke-width="5.013699" stroke-linecap="round" stroke-linejoin="round" filter="url(#filter1)" d="M 233 117 C 233 56.800964 184.199036 8 124 8 C 63.800961 8 15 56.800964 15 117 C 15 177.199036 63.800961 226 124 226 C 184.199036 226 233 177.199036 233 117 Z"/>
        <path id="path1" fill="#000000" fill-rule="evenodd" stroke="none" d="M 194 148.5 C 194 126.132469 175.867523 108 153.5 108 C 131.132462 108 113 126.132469 113 148.5 C 113 170.867523 131.132462 189 153.5 189 C 175.867523 189 194 170.867523 194 148.5 Z"/>
    </g>
    <g id="right-eye">
        <filter id="filter2" x="0" y="0" width="512" height="238" filterUnits="userSpaceOnUse" primitiveUnits="userSpaceOnUse" color-interpolation-filters="sRGB">
            <feGaussianBlur stdDeviation="0"/>
            <feOffset dx="2.5" dy="4.330127" result="offsetblur"/>
            <feFlood flood-color="#000000" flood-opacity="1"/>
            <feComposite in2="offsetblur" operator="in"/>
            <feMerge>
                <feMergeNode/>
                <feMergeNode in="SourceGraphic"/>
            </feMerge>
        </filter>
        <path id="path2" fill="#ffffff" fill-rule="evenodd" stroke="#000000" stroke-width="5.013699" stroke-linecap="round" stroke-linejoin="round" filter="url(#filter2)" d="M 493 117 C 493 56.800964 444.199036 8 384 8 C 323.800964 8 275 56.800964 275 117 C 275 177.199036 323.800964 226 384 226 C 444.199036 226 493 177.199036 493 117 Z"/>
        <path id="path3" fill="#000000" fill-rule="evenodd" stroke="none" d="M 454 148.5 C 454 126.132469 435.867523 108 413.5 108 C 391.132477 108 373 126.132469 373 148.5 C 373 170.867523 391.132477 189 413.5 189 C 435.867523 189 454 170.867523 454 148.5 Z"/>
    </g>
</svg>
