<?xml version="1.0" encoding="UTF-8"?>
<!-- Generated by Pixelmator Pro 3.7.1 -->
<svg width="512" height="512" viewBox="0 0 512 512" xmlns="http://www.w3.org/2000/svg">
 <path id="Shape" fill="#000000" fill-rule="evenodd" stroke="#000000" stroke-width="63.013699" stroke-linecap="round" stroke-linejoin="round" d="M 411.918365 98.374756 L 99.376358 410.916748"/>
 <path id="path1" fill="#000000" fill-rule="evenodd" stroke="#000000" stroke-width="63.013699" stroke-linecap="round" stroke-linejoin="round" d="M 99.374756 99.081635 L 411.916748 411.623657"/>
 <path id="path2" fill="#000000" fill-rule="evenodd" stroke="#000000" stroke-width="63.013699" stroke-linecap="round" stroke-linejoin="round" d="M 255.500153 33.998291 L 255.500153 475.999451"/>
 <path id="path3" fill="#000000" fill-rule="evenodd" stroke="#000000" stroke-width="63.013699" stroke-linecap="round" stroke-linejoin="round" d="M 477.001709 256.5 L 35.000565 256.5"/>
 <path id="path4" fill="#000000" fill-rule="evenodd" stroke="#000000" stroke-width="63.013699" stroke-linecap="round" stroke-linejoin="round" d="M 421 255 C 421 163.873016 347.126984 90 256 90 C 164.873016 90 91 163.873016 91 255 C 91 346.126984 164.873016 420 256 420 C 347.126984 420 421 346.126984 421 255 Z"/>
 <path id="Circle" fill="#ffffff" fill-rule="evenodd" stroke="none" d="M 220 172.5 C 220 146.818756 199.181244 126 173.5 126 C 147.818756 126 127 146.818756 127 172.5 C 127 198.181244 147.818756 219 173.5 219 C 199.181244 219 220 198.181244 220 172.5 Z"/>
</svg>
