<?xml version="1.0" encoding="UTF-8"?>
<!-- Generated by Pixelmator Pro 3.7.1 -->
<svg width="512" height="512" viewBox="0 0 512 512" xmlns="http://www.w3.org/2000/svg">
 <path id="Shadow" fill="#000000" fill-rule="evenodd" stroke="none" d="M 452.266632 456.533447 C 452.266632 425.900024 354.843781 401.066772 234.666641 401.066772 C 114.489395 401.066772 17.066668 425.900024 17.066668 456.533447 C 17.066668 487.166748 114.489395 512 234.666641 512 C 354.843781 512 452.266632 487.166748 452.266632 456.533447 Z"/>
 <g id="Can">
 <linearGradient id="linearGradient1" x1="176.433932" y1="332.126919" x2="305.228451" y2="407.027809" gradientUnits="userSpaceOnUse">
 <stop offset="0" stop-color="#804501" stop-opacity="1"/>
 <stop offset="1" stop-color="#ff8800" stop-opacity="1"/>
 </linearGradient>
 <path id="Path" fill="url(#linearGradient1)" fill-rule="evenodd" stroke="#000000" stroke-width="17" stroke-linecap="round" stroke-linejoin="round" d="M 315.229156 164.517914 C 310.14093 164.452209 237.279175 163.489288 142.46463 161.018616 C 148.770554 258.494934 156.838745 438.052063 183.461288 472.007629 C 214.408417 490.92395 249.639206 491.815155 284.61319 492.69986 C 294.691589 492.954773 304.748657 493.209198 314.675751 493.894226 C 314.675812 493.920227 314.675842 493.946198 314.675903 493.972168 C 314.859619 493.958862 315.043427 493.94574 315.227234 493.932739 C 315.410736 493.945709 315.594238 493.958832 315.777649 493.972107 C 315.77771 493.946167 315.77774 493.920227 315.777802 493.894287 C 325.704895 493.209259 335.761963 492.954865 345.840363 492.699921 C 380.814331 491.815216 416.045135 490.924011 446.99231 472.00769 C 473.614868 438.052124 481.682983 258.494995 487.988892 161.018677 C 393.203674 163.488586 320.357574 164.451691 315.229156 164.517914 Z"/>
 <linearGradient id="linearGradient2" x1="207.825459" y1="334.863711" x2="229.703125" y2="337.765625" gradientUnits="userSpaceOnUse">
 <stop offset="0" stop-color="#804501" stop-opacity="1"/>
 <stop offset="1" stop-color="#ff8800" stop-opacity="1"/>
 </linearGradient>
 <path id="path1" fill="url(#linearGradient2)" fill-rule="evenodd" stroke="#000000" stroke-width="17" stroke-linecap="round" stroke-linejoin="round" d="M 233.996552 453.00351 C 201.824188 396.679779 182.21933 230.474945 185.99826 218.001801 C 195.006317 217.35849 236.125702 209.221771 237.998749 222.001312 C 239.871552 234.781097 260.040009 417.285736 254.996552 432.00351 C 251.265839 442.890472 242.095428 453.067596 233.996552 453.00351 Z"/>
 <linearGradient id="linearGradient3" x1="284.798948" y1="333.826815" x2="324.03125" y2="339.195313" gradientUnits="userSpaceOnUse">
 <stop offset="0" stop-color="#804501" stop-opacity="1"/>
 <stop offset="1" stop-color="#ff8800" stop-opacity="1"/>
 </linearGradient>
 <path id="path2" fill="url(#linearGradient3)" fill-rule="evenodd" stroke="#000000" stroke-width="17" stroke-linecap="round" stroke-linejoin="round" d="M 280.987274 308.012817 C 283.285858 332.781616 294.601532 430.264252 306.991913 444.008148 C 312.768402 449.217987 313.332703 449.28241 315.255035 449.501923 C 315.891174 449.574554 316.676086 449.664154 317.84787 449.962891 C 317.848511 449.976532 317.849152 449.989471 317.849792 450.001678 C 317.874634 449.995148 317.899261 449.988739 317.923767 449.982391 C 317.948303 449.988739 317.972931 449.995148 317.997772 450.001678 C 317.998413 449.989471 317.999054 449.976532 317.999695 449.962891 C 319.171478 449.664154 319.95639 449.574554 320.592529 449.501923 C 322.514862 449.28241 323.079163 449.217987 328.855652 444.008148 C 341.246033 430.264252 352.561707 332.781616 354.860291 308.012817 C 355.173462 303.242798 355.738953 297.368134 356.358948 290.927032 C 358.268677 271.087036 360.69574 245.872772 357.860291 231.012787 C 350.99823 216.361298 320.379883 211.391022 317.997375 211.024933 L 317.997284 211.002777 C 317.997284 211.002777 317.972351 211.006409 317.923767 211.013733 C 317.875214 211.006409 317.850281 211.002777 317.850281 211.002777 L 317.85025 211.024902 C 315.467682 211.391022 284.849335 216.361298 277.987274 231.012787 C 275.151825 245.872772 277.578888 271.087036 279.488617 290.927032 C 280.108612 297.368134 280.674103 303.242798 280.987274 308.012817 Z"/>
 <linearGradient id="linearGradient4" x1="414.212986" y1="341.671875" x2="439.911497" y2="332.252056" gradientUnits="userSpaceOnUse">
 <stop offset="0" stop-color="#ff8800" stop-opacity="1"/>
 <stop offset="1" stop-color="#804501" stop-opacity="1"/>
 </linearGradient>
 <path id="path3" fill="url(#linearGradient4)" fill-rule="evenodd" stroke="#000000" stroke-width="17" stroke-linecap="round" stroke-linejoin="round" d="M 398.341431 452.00351 C 430.513794 395.679779 450.118652 229.474945 446.339722 217.001801 C 437.331665 216.35849 396.21228 208.221771 394.339233 221.001312 C 392.466431 233.781097 372.297974 416.285736 377.341431 431.00351 C 381.072144 441.890472 390.242554 452.067596 398.341431 452.00351 Z"/>
 </g>
 <g id="Lid-Open">
 <path id="Oval" fill="#ff8800" fill-rule="evenodd" stroke="#000000" stroke-width="17.066668" stroke-linecap="round" stroke-linejoin="round" d="M 494.933228 82.800079 C 494.933228 45.097443 414.702637 14.533356 315.733276 14.533356 C 216.763809 14.533356 136.53334 45.097443 136.53334 82.800079 C 136.53334 120.502716 216.763809 151.066681 315.733276 151.066681 C 414.702637 151.066681 494.933228 120.502716 494.933228 82.800079 Z"/>
 <radialGradient id="radialGradient1" cx="315.733333" cy="99.866667" r="144.051158" fx="315.733333" fy="99.866667" gradientUnits="userSpaceOnUse">
 <stop offset="0" stop-color="#804501" stop-opacity="1"/>
 <stop offset="1" stop-color="#ff8800" stop-opacity="1"/>
 </radialGradient>
 <path id="path4" fill="url(#radialGradient1)" fill-rule="evenodd" stroke="#000000" stroke-width="17.066668" stroke-linecap="round" stroke-linejoin="round" d="M 494.933228 99.86673 C 494.933228 71.589752 414.702637 48.666779 315.733276 48.666779 C 216.763809 48.666779 136.53334 71.589752 136.53334 99.86673 C 136.53334 128.143707 216.763809 151.066681 315.733276 151.066681 C 414.702637 151.066681 494.933228 128.143707 494.933228 99.86673 Z"/>
 </g>
</svg>
